<mxfile host="65bd71144e">
    <diagram id="BWYd3KJGAr017hdOrgJx" name="Model">
        <mxGraphModel dx="-3341" dy="-5148" grid="0" gridSize="10" guides="1" tooltips="1" connect="1" arrows="1" fold="1" page="1" pageScale="1" pageWidth="850" pageHeight="1100" math="0" shadow="0">
            <root>
                <mxCell id="0"/>
                <mxCell id="1" parent="0"/>
                <mxCell id="2" value="&lt;b&gt;UnsignedTransaction&lt;/b&gt;" style="swimlane;fontStyle=0;align=center;verticalAlign=top;childLayout=stackLayout;horizontal=1;startSize=27;horizontalStack=0;resizeParent=1;resizeParentMax=0;resizeLast=0;collapsible=0;marginBottom=0;html=1;labelBackgroundColor=none;fontColor=#F0F0F0;strokeColor=#F0F0F0;dashed=1;" parent="1" vertex="1">
                    <mxGeometry x="4656" y="5527" width="213" height="47" as="geometry"/>
                </mxCell>
                <mxCell id="mPQHqYZTjJ4e7mBvd5df-3" value="created through service" style="edgeStyle=none;html=1;entryX=0;entryY=0.25;entryDx=0;entryDy=0;" parent="1" source="3mrRI6Dg5IItE96_tzJ7-66" target="2" edge="1">
                    <mxGeometry relative="1" as="geometry"/>
                </mxCell>
                <mxCell id="3mrRI6Dg5IItE96_tzJ7-66" value="&lt;b&gt;Send&lt;/b&gt;" style="swimlane;fontStyle=0;align=center;verticalAlign=top;childLayout=stackLayout;horizontal=1;startSize=27;horizontalStack=0;resizeParent=1;resizeParentMax=0;resizeLast=0;collapsible=0;marginBottom=0;html=1;labelBackgroundColor=none;fontColor=#F0F0F0;strokeColor=#F0F0F0;" parent="1" vertex="1">
                    <mxGeometry x="4270" y="5523" width="213" height="227" as="geometry"/>
                </mxCell>
                <mxCell id="3mrRI6Dg5IItE96_tzJ7-67" value="Holding holding" style="text;html=1;strokeColor=none;fillColor=none;align=left;verticalAlign=middle;spacingLeft=4;spacingRight=4;overflow=hidden;rotatable=0;points=[[0,0.5],[1,0.5]];portConstraint=eastwest;labelBackgroundColor=none;fontColor=#F0F0F0;" parent="3mrRI6Dg5IItE96_tzJ7-66" vertex="1">
                    <mxGeometry y="27" width="213" height="20" as="geometry"/>
                </mxCell>
                <mxCell id="3mrRI6Dg5IItE96_tzJ7-68" value="Amount amount" style="text;html=1;strokeColor=none;fillColor=none;align=left;verticalAlign=middle;spacingLeft=4;spacingRight=4;overflow=hidden;rotatable=0;points=[[0,0.5],[1,0.5]];portConstraint=eastwest;labelBackgroundColor=none;fontColor=#F0F0F0;" parent="3mrRI6Dg5IItE96_tzJ7-66" vertex="1">
                    <mxGeometry y="47" width="213" height="20" as="geometry"/>
                </mxCell>
                <mxCell id="3mrRI6Dg5IItE96_tzJ7-69" value="PubKeyAddress address" style="text;html=1;strokeColor=none;fillColor=none;align=left;verticalAlign=middle;spacingLeft=4;spacingRight=4;overflow=hidden;rotatable=0;points=[[0,0.5],[1,0.5]];portConstraint=eastwest;labelBackgroundColor=none;fontColor=#F0F0F0;" parent="3mrRI6Dg5IItE96_tzJ7-66" vertex="1">
                    <mxGeometry y="67" width="213" height="20" as="geometry"/>
                </mxCell>
                <mxCell id="3mrRI6Dg5IItE96_tzJ7-70" value="PubKeyAddress changeAddress" style="text;html=1;strokeColor=none;fillColor=none;align=left;verticalAlign=middle;spacingLeft=4;spacingRight=4;overflow=hidden;rotatable=0;points=[[0,0.5],[1,0.5]];portConstraint=eastwest;labelBackgroundColor=none;fontColor=#F0F0F0;" parent="3mrRI6Dg5IItE96_tzJ7-66" vertex="1">
                    <mxGeometry y="87" width="213" height="20" as="geometry"/>
                </mxCell>
                <mxCell id="3mrRI6Dg5IItE96_tzJ7-71" value="FeeSelection feeSelection" style="text;html=1;strokeColor=none;fillColor=none;align=left;verticalAlign=middle;spacingLeft=4;spacingRight=4;overflow=hidden;rotatable=0;points=[[0,0.5],[1,0.5]];portConstraint=eastwest;labelBackgroundColor=none;fontColor=#F0F0F0;" parent="3mrRI6Dg5IItE96_tzJ7-66" vertex="1">
                    <mxGeometry y="107" width="213" height="20" as="geometry"/>
                </mxCell>
                <mxCell id="3mrRI6Dg5IItE96_tzJ7-72" value="Memo memo" style="text;html=1;strokeColor=none;fillColor=none;align=left;verticalAlign=middle;spacingLeft=4;spacingRight=4;overflow=hidden;rotatable=0;points=[[0,0.5],[1,0.5]];portConstraint=eastwest;labelBackgroundColor=none;fontColor=#F0F0F0;" parent="3mrRI6Dg5IItE96_tzJ7-66" vertex="1">
                    <mxGeometry y="127" width="213" height="20" as="geometry"/>
                </mxCell>
                <mxCell id="3mrRI6Dg5IItE96_tzJ7-73" value="Note note" style="text;html=1;strokeColor=none;fillColor=none;align=left;verticalAlign=middle;spacingLeft=4;spacingRight=4;overflow=hidden;rotatable=0;points=[[0,0.5],[1,0.5]];portConstraint=eastwest;labelBackgroundColor=none;fontColor=#F0F0F0;" parent="3mrRI6Dg5IItE96_tzJ7-66" vertex="1">
                    <mxGeometry y="147" width="213" height="20" as="geometry"/>
                </mxCell>
                <mxCell id="4" value="bool sendAll" style="text;html=1;strokeColor=none;fillColor=none;align=left;verticalAlign=middle;spacingLeft=4;spacingRight=4;overflow=hidden;rotatable=0;points=[[0,0.5],[1,0.5]];portConstraint=eastwest;labelBackgroundColor=none;fontColor=#F0F0F0;" parent="3mrRI6Dg5IItE96_tzJ7-66" vertex="1">
                    <mxGeometry y="167" width="213" height="20" as="geometry"/>
                </mxCell>
                <mxCell id="3mrRI6Dg5IItE96_tzJ7-74" value="List&amp;lt;Unspent&amp;gt; assetUnspents" style="text;html=1;strokeColor=none;fillColor=none;align=left;verticalAlign=middle;spacingLeft=4;spacingRight=4;overflow=hidden;rotatable=0;points=[[0,0.5],[1,0.5]];portConstraint=eastwest;labelBackgroundColor=none;fontColor=#F0F0F0;" parent="3mrRI6Dg5IItE96_tzJ7-66" vertex="1">
                    <mxGeometry y="187" width="213" height="20" as="geometry"/>
                </mxCell>
                <mxCell id="bWI_Sc9YPGuSD0QZRtK5-4" value="List&amp;lt;Unspent&amp;gt; ravenUnspents" style="text;html=1;strokeColor=none;fillColor=none;align=left;verticalAlign=middle;spacingLeft=4;spacingRight=4;overflow=hidden;rotatable=0;points=[[0,0.5],[1,0.5]];portConstraint=eastwest;labelBackgroundColor=none;fontColor=#F0F0F0;" parent="3mrRI6Dg5IItE96_tzJ7-66" vertex="1">
                    <mxGeometry y="207" width="213" height="20" as="geometry"/>
                </mxCell>
            </root>
        </mxGraphModel>
    </diagram>
    <diagram id="Z8ve_i1k2ViZarEndNJg" name="Validation">
        <mxGraphModel dx="1801" dy="352" grid="1" gridSize="10" guides="1" tooltips="1" connect="1" arrows="1" fold="1" page="1" pageScale="1" pageWidth="850" pageHeight="1100" math="0" shadow="0">
            <root>
                <mxCell id="gR1c2OEO8BX57OVhKf7L-0"/>
                <mxCell id="gR1c2OEO8BX57OVhKf7L-1" parent="gR1c2OEO8BX57OVhKf7L-0"/>
                <mxCell id="rzOP3FJNOUQrKYkEHjbR-0" value="Send Service" style="swimlane;" vertex="1" parent="gR1c2OEO8BX57OVhKf7L-1">
                    <mxGeometry x="20" width="390" height="280" as="geometry"/>
                </mxCell>
                <mxCell id="rzOP3FJNOUQrKYkEHjbR-1" value="" style="rounded=1;whiteSpace=wrap;html=1;" vertex="1" parent="rzOP3FJNOUQrKYkEHjbR-0">
                    <mxGeometry x="30" y="80" width="120" height="60" as="geometry"/>
                </mxCell>
                <mxCell id="rzOP3FJNOUQrKYkEHjbR-2" value="" style="rounded=1;whiteSpace=wrap;html=1;" vertex="1" parent="rzOP3FJNOUQrKYkEHjbR-0">
                    <mxGeometry x="30" y="190" width="120" height="60" as="geometry"/>
                </mxCell>
            </root>
        </mxGraphModel>
    </diagram>
    <diagram id="Vnh8Hhzg5XQSMtLSY0XQ" name="Flow">
        <mxGraphModel dx="1746" dy="352" grid="1" gridSize="10" guides="1" tooltips="1" connect="1" arrows="1" fold="1" page="1" pageScale="1" pageWidth="850" pageHeight="1100" math="0" shadow="0">
            <root>
                <mxCell id="iQaidHP6ZMusDu4zdnxP-0"/>
                <mxCell id="iQaidHP6ZMusDu4zdnxP-1" parent="iQaidHP6ZMusDu4zdnxP-0"/>
                <mxCell id="h8BsaGnzAuJQGt5zdpiG-0" value="success" style="edgeStyle=none;html=1;" parent="iQaidHP6ZMusDu4zdnxP-1" source="h8BsaGnzAuJQGt5zdpiG-2" target="h8BsaGnzAuJQGt5zdpiG-13" edge="1">
                    <mxGeometry relative="1" as="geometry">
                        <mxPoint x="1406" y="105" as="targetPoint"/>
                    </mxGeometry>
                </mxCell>
                <mxCell id="h8BsaGnzAuJQGt5zdpiG-1" value="failure" style="edgeStyle=none;html=1;" parent="iQaidHP6ZMusDu4zdnxP-1" source="h8BsaGnzAuJQGt5zdpiG-2" target="h8BsaGnzAuJQGt5zdpiG-14" edge="1">
                    <mxGeometry relative="1" as="geometry">
                        <mxPoint x="1406.4496154785156" y="40.04901885986328" as="targetPoint"/>
                    </mxGeometry>
                </mxCell>
                <mxCell id="h8BsaGnzAuJQGt5zdpiG-2" value="MT&lt;br&gt;server" style="shape=cylinder3;whiteSpace=wrap;html=1;boundedLbl=1;backgroundOutline=1;size=15;" parent="iQaidHP6ZMusDu4zdnxP-1" vertex="1">
                    <mxGeometry x="1250" y="30" width="60" height="80" as="geometry"/>
                </mxCell>
                <mxCell id="ozwiGq-LYrcHsKtCx6hv-2" style="edgeStyle=none;html=1;" parent="iQaidHP6ZMusDu4zdnxP-1" source="h8BsaGnzAuJQGt5zdpiG-4" target="ozwiGq-LYrcHsKtCx6hv-1" edge="1">
                    <mxGeometry relative="1" as="geometry"/>
                </mxCell>
                <mxCell id="h8BsaGnzAuJQGt5zdpiG-4" value="get UTXOs from server" style="rounded=1;whiteSpace=wrap;html=1;" parent="iQaidHP6ZMusDu4zdnxP-1" vertex="1">
                    <mxGeometry x="310" y="163" width="120" height="60" as="geometry"/>
                </mxCell>
                <mxCell id="h8BsaGnzAuJQGt5zdpiG-5" style="edgeStyle=none;html=1;" parent="iQaidHP6ZMusDu4zdnxP-1" source="h8BsaGnzAuJQGt5zdpiG-6" target="h8BsaGnzAuJQGt5zdpiG-4" edge="1">
                    <mxGeometry relative="1" as="geometry"/>
                </mxCell>
                <mxCell id="LYictxzL24MKV2ZWyIX4-12" style="edgeStyle=none;html=1;" parent="iQaidHP6ZMusDu4zdnxP-1" source="h8BsaGnzAuJQGt5zdpiG-6" target="LYictxzL24MKV2ZWyIX4-3" edge="1">
                    <mxGeometry relative="1" as="geometry"/>
                </mxCell>
                <mxCell id="h8BsaGnzAuJQGt5zdpiG-6" value="choose holding" style="rounded=1;whiteSpace=wrap;html=1;strokeColor=#CDEB8B;" parent="iQaidHP6ZMusDu4zdnxP-1" vertex="1">
                    <mxGeometry x="159" y="210" width="120" height="60" as="geometry"/>
                </mxCell>
                <mxCell id="LYictxzL24MKV2ZWyIX4-6" style="edgeStyle=none;html=1;exitX=0.75;exitY=1;exitDx=0;exitDy=0;entryX=0.75;entryY=0;entryDx=0;entryDy=0;" parent="iQaidHP6ZMusDu4zdnxP-1" source="h8BsaGnzAuJQGt5zdpiG-10" target="LYictxzL24MKV2ZWyIX4-0" edge="1">
                    <mxGeometry relative="1" as="geometry"/>
                </mxCell>
                <mxCell id="h8BsaGnzAuJQGt5zdpiG-10" value="get sublist of UTXOs" style="rounded=1;whiteSpace=wrap;html=1;" parent="iQaidHP6ZMusDu4zdnxP-1" vertex="1">
                    <mxGeometry x="820" y="80" width="120" height="60" as="geometry"/>
                </mxCell>
                <mxCell id="h8BsaGnzAuJQGt5zdpiG-11" value="broadcast signed transaction" style="edgeStyle=none;html=1;" parent="iQaidHP6ZMusDu4zdnxP-1" source="LYictxzL24MKV2ZWyIX4-7" target="h8BsaGnzAuJQGt5zdpiG-2" edge="1">
                    <mxGeometry relative="1" as="geometry">
                        <mxPoint x="874" y="310" as="sourcePoint"/>
                    </mxGeometry>
                </mxCell>
                <mxCell id="ozwiGq-LYrcHsKtCx6hv-4" style="edgeStyle=none;html=1;" parent="iQaidHP6ZMusDu4zdnxP-1" source="h8BsaGnzAuJQGt5zdpiG-12" target="LYictxzL24MKV2ZWyIX4-9" edge="1">
                    <mxGeometry relative="1" as="geometry"/>
                </mxCell>
                <mxCell id="h8BsaGnzAuJQGt5zdpiG-12" value="show details&lt;br&gt;w/ unsigned transaction (has fee)&lt;br&gt;and confirm button allowed" style="rounded=1;whiteSpace=wrap;html=1;" parent="iQaidHP6ZMusDu4zdnxP-1" vertex="1">
                    <mxGeometry x="980" y="159.5" width="200" height="67" as="geometry"/>
                </mxCell>
                <mxCell id="h8BsaGnzAuJQGt5zdpiG-13" value="home screen&lt;br&gt;snackbar" style="rounded=1;whiteSpace=wrap;html=1;" parent="iQaidHP6ZMusDu4zdnxP-1" vertex="1">
                    <mxGeometry x="1412" y="83" width="120" height="40" as="geometry"/>
                </mxCell>
                <mxCell id="h8BsaGnzAuJQGt5zdpiG-14" value="back to send screen&lt;br&gt;error snackbar" style="rounded=1;whiteSpace=wrap;html=1;" parent="iQaidHP6ZMusDu4zdnxP-1" vertex="1">
                    <mxGeometry x="1412" y="10" width="120" height="43" as="geometry"/>
                </mxCell>
                <mxCell id="h8BsaGnzAuJQGt5zdpiG-15" style="edgeStyle=none;html=1;entryX=0.5;entryY=1;entryDx=0;entryDy=0;" parent="iQaidHP6ZMusDu4zdnxP-1" source="h8BsaGnzAuJQGt5zdpiG-16" target="ozwiGq-LYrcHsKtCx6hv-1" edge="1">
                    <mxGeometry relative="1" as="geometry"/>
                </mxCell>
                <mxCell id="h8BsaGnzAuJQGt5zdpiG-16" value="on preview" style="rounded=1;whiteSpace=wrap;html=1;strokeColor=#CDEB8B;" parent="iQaidHP6ZMusDu4zdnxP-1" vertex="1">
                    <mxGeometry x="480" y="253" width="120" height="60" as="geometry"/>
                </mxCell>
                <mxCell id="LYictxzL24MKV2ZWyIX4-1" style="edgeStyle=none;html=1;" parent="iQaidHP6ZMusDu4zdnxP-1" source="h8BsaGnzAuJQGt5zdpiG-18" target="LYictxzL24MKV2ZWyIX4-0" edge="1">
                    <mxGeometry relative="1" as="geometry"/>
                </mxCell>
                <mxCell id="h8BsaGnzAuJQGt5zdpiG-18" value="make sure receive UTXOs from server" style="rounded=1;whiteSpace=wrap;html=1;" parent="iQaidHP6ZMusDu4zdnxP-1" vertex="1">
                    <mxGeometry x="650" y="163" width="118" height="60" as="geometry"/>
                </mxCell>
                <mxCell id="8pnKxAwjl7o-hMRxHnEL-4" style="edgeStyle=none;html=1;" parent="iQaidHP6ZMusDu4zdnxP-1" source="8pnKxAwjl7o-hMRxHnEL-1" target="h8BsaGnzAuJQGt5zdpiG-6" edge="1">
                    <mxGeometry relative="1" as="geometry"/>
                </mxCell>
                <mxCell id="8pnKxAwjl7o-hMRxHnEL-0" value="get change address&lt;br&gt;from server" style="rounded=1;whiteSpace=wrap;html=1;" parent="iQaidHP6ZMusDu4zdnxP-1" vertex="1">
                    <mxGeometry x="159" y="140" width="120" height="60" as="geometry"/>
                </mxCell>
                <mxCell id="8pnKxAwjl7o-hMRxHnEL-5" style="edgeStyle=none;html=1;" parent="iQaidHP6ZMusDu4zdnxP-1" source="8pnKxAwjl7o-hMRxHnEL-1" target="8pnKxAwjl7o-hMRxHnEL-0" edge="1">
                    <mxGeometry relative="1" as="geometry"/>
                </mxCell>
                <mxCell id="8pnKxAwjl7o-hMRxHnEL-1" value="load send screen" style="rounded=1;whiteSpace=wrap;html=1;strokeColor=#CDEB8B;" parent="iQaidHP6ZMusDu4zdnxP-1" vertex="1">
                    <mxGeometry x="11" y="180" width="120" height="60" as="geometry"/>
                </mxCell>
                <mxCell id="LYictxzL24MKV2ZWyIX4-5" style="edgeStyle=none;html=1;entryX=0.25;entryY=1;entryDx=0;entryDy=0;exitX=0.25;exitY=0;exitDx=0;exitDy=0;" parent="iQaidHP6ZMusDu4zdnxP-1" source="LYictxzL24MKV2ZWyIX4-0" target="h8BsaGnzAuJQGt5zdpiG-10" edge="1">
                    <mxGeometry relative="1" as="geometry"/>
                </mxCell>
                <mxCell id="LYictxzL24MKV2ZWyIX4-8" style="edgeStyle=none;html=1;" parent="iQaidHP6ZMusDu4zdnxP-1" source="LYictxzL24MKV2ZWyIX4-0" target="h8BsaGnzAuJQGt5zdpiG-12" edge="1">
                    <mxGeometry relative="1" as="geometry"/>
                </mxCell>
                <mxCell id="LYictxzL24MKV2ZWyIX4-0" value="&lt;span style=&quot;color: rgb(240 , 240 , 240) ; font-family: &amp;#34;helvetica&amp;#34; ; font-size: 12px ; font-style: normal ; font-weight: 400 ; letter-spacing: normal ; text-align: center ; text-indent: 0px ; text-transform: none ; word-spacing: 0px ; background-color: rgb(42 , 42 , 42) ; display: inline ; float: none&quot;&gt;fee is calculated&lt;/span&gt;&lt;br style=&quot;color: rgb(240 , 240 , 240) ; font-family: &amp;#34;helvetica&amp;#34; ; font-size: 12px ; font-style: normal ; font-weight: 400 ; letter-spacing: normal ; text-align: center ; text-indent: 0px ; text-transform: none ; word-spacing: 0px ; background-color: rgb(42 , 42 , 42)&quot;&gt;&lt;span style=&quot;color: rgb(240 , 240 , 240) ; font-family: &amp;#34;helvetica&amp;#34; ; font-size: 12px ; font-style: normal ; font-weight: 400 ; letter-spacing: normal ; text-align: center ; text-indent: 0px ; text-transform: none ; word-spacing: 0px ; background-color: rgb(42 , 42 , 42) ; display: inline ; float: none&quot;&gt;generate unsigned transaction&lt;/span&gt;" style="rounded=1;whiteSpace=wrap;html=1;" parent="iQaidHP6ZMusDu4zdnxP-1" vertex="1">
                    <mxGeometry x="820" y="163" width="120" height="60" as="geometry"/>
                </mxCell>
                <mxCell id="LYictxzL24MKV2ZWyIX4-4" style="edgeStyle=none;html=1;" parent="iQaidHP6ZMusDu4zdnxP-1" source="LYictxzL24MKV2ZWyIX4-3" target="h8BsaGnzAuJQGt5zdpiG-16" edge="1">
                    <mxGeometry relative="1" as="geometry"/>
                </mxCell>
                <mxCell id="LYictxzL24MKV2ZWyIX4-3" value="specify&lt;br&gt;all other data" style="rounded=1;whiteSpace=wrap;html=1;strokeColor=#CDEB8B;" parent="iQaidHP6ZMusDu4zdnxP-1" vertex="1">
                    <mxGeometry x="310" y="253" width="120" height="60" as="geometry"/>
                </mxCell>
                <mxCell id="LYictxzL24MKV2ZWyIX4-7" value="&lt;span style=&quot;color: rgb(240 , 240 , 240) ; font-family: &amp;#34;helvetica&amp;#34; ; font-size: 12px ; font-style: normal ; font-weight: 400 ; letter-spacing: normal ; text-align: center ; text-indent: 0px ; text-transform: none ; word-spacing: 0px ; background-color: rgb(42 , 42 , 42) ; display: inline ; float: none&quot;&gt;sign UnsignedTransaction&lt;/span&gt;" style="rounded=1;whiteSpace=wrap;html=1;" parent="iQaidHP6ZMusDu4zdnxP-1" vertex="1">
                    <mxGeometry x="1210" y="256.5" width="140" height="60" as="geometry"/>
                </mxCell>
                <mxCell id="LYictxzL24MKV2ZWyIX4-11" style="edgeStyle=none;html=1;" parent="iQaidHP6ZMusDu4zdnxP-1" source="LYictxzL24MKV2ZWyIX4-9" target="LYictxzL24MKV2ZWyIX4-7" edge="1">
                    <mxGeometry relative="1" as="geometry"/>
                </mxCell>
                <mxCell id="LYictxzL24MKV2ZWyIX4-9" value="on Confirm" style="rounded=1;whiteSpace=wrap;html=1;strokeColor=#CDEB8B;" parent="iQaidHP6ZMusDu4zdnxP-1" vertex="1">
                    <mxGeometry x="1020" y="253" width="120" height="67" as="geometry"/>
                </mxCell>
                <mxCell id="LYictxzL24MKV2ZWyIX4-13" value="load send screen" style="rounded=1;whiteSpace=wrap;html=1;strokeColor=#CDEB8B;" parent="iQaidHP6ZMusDu4zdnxP-1" vertex="1">
                    <mxGeometry x="11" y="180" width="120" height="60" as="geometry"/>
                </mxCell>
                <mxCell id="LYictxzL24MKV2ZWyIX4-14" value="choose holding" style="rounded=1;whiteSpace=wrap;html=1;strokeColor=#CDEB8B;" parent="iQaidHP6ZMusDu4zdnxP-1" vertex="1">
                    <mxGeometry x="159" y="210" width="120" height="60" as="geometry"/>
                </mxCell>
                <mxCell id="LYictxzL24MKV2ZWyIX4-15" value="specify&lt;br&gt;all other data" style="rounded=1;whiteSpace=wrap;html=1;strokeColor=#CDEB8B;" parent="iQaidHP6ZMusDu4zdnxP-1" vertex="1">
                    <mxGeometry x="310" y="253" width="120" height="60" as="geometry"/>
                </mxCell>
                <mxCell id="ozwiGq-LYrcHsKtCx6hv-3" style="edgeStyle=none;html=1;entryX=0;entryY=0.5;entryDx=0;entryDy=0;" parent="iQaidHP6ZMusDu4zdnxP-1" source="ozwiGq-LYrcHsKtCx6hv-1" target="h8BsaGnzAuJQGt5zdpiG-18" edge="1">
                    <mxGeometry relative="1" as="geometry"/>
                </mxCell>
                <mxCell id="ozwiGq-LYrcHsKtCx6hv-1" value="show tx details&lt;br&gt;without fee, &lt;br&gt;as it must be calculated" style="rounded=1;whiteSpace=wrap;html=1;" parent="iQaidHP6ZMusDu4zdnxP-1" vertex="1">
                    <mxGeometry x="480" y="159.5" width="120" height="67" as="geometry"/>
                </mxCell>
            </root>
        </mxGraphModel>
    </diagram>
    <diagram id="FHIyI6qUTBI5sytoxsZt" name="control flow">
        <mxGraphModel dx="1746" dy="352" grid="0" gridSize="10" guides="1" tooltips="1" connect="1" arrows="1" fold="1" page="1" pageScale="1" pageWidth="850" pageHeight="1100" math="0" shadow="0">
            <root>
                <mxCell id="-Bo_3EVoivoA1jwyAUgO-0"/>
                <mxCell id="-Bo_3EVoivoA1jwyAUgO-1" parent="-Bo_3EVoivoA1jwyAUgO-0"/>
                <mxCell id="-Bo_3EVoivoA1jwyAUgO-8" value="builds send object" style="edgeStyle=orthogonalEdgeStyle;html=1;entryX=0.25;entryY=0.1;entryDx=0;entryDy=0;entryPerimeter=0;exitX=0;exitY=0.75;exitDx=0;exitDy=0;curved=1;" parent="-Bo_3EVoivoA1jwyAUgO-1" source="-Bo_3EVoivoA1jwyAUgO-2" target="-Bo_3EVoivoA1jwyAUgO-4" edge="1">
                    <mxGeometry x="-0.4191" relative="1" as="geometry">
                        <Array as="points">
                            <mxPoint x="40" y="350"/>
                            <mxPoint x="40" y="216"/>
                        </Array>
                        <mxPoint as="offset"/>
                    </mxGeometry>
                </mxCell>
                <mxCell id="-Bo_3EVoivoA1jwyAUgO-39" style="edgeStyle=orthogonalEdgeStyle;curved=1;html=1;exitX=1;exitY=0.25;exitDx=0;exitDy=0;entryX=0;entryY=0.5;entryDx=0;entryDy=0;" parent="-Bo_3EVoivoA1jwyAUgO-1" source="-Bo_3EVoivoA1jwyAUgO-2" target="-Bo_3EVoivoA1jwyAUgO-37" edge="1">
                    <mxGeometry relative="1" as="geometry"/>
                </mxCell>
                <mxCell id="-Bo_3EVoivoA1jwyAUgO-2" value="Cubit" style="rounded=0;whiteSpace=wrap;html=1;" parent="-Bo_3EVoivoA1jwyAUgO-1" vertex="1">
                    <mxGeometry x="210" y="290" width="120" height="80" as="geometry"/>
                </mxCell>
                <mxCell id="-Bo_3EVoivoA1jwyAUgO-31" value="" style="edgeStyle=orthogonalEdgeStyle;curved=1;html=1;exitX=0.5;exitY=0;exitDx=0;exitDy=0;entryX=0.75;entryY=0.1;entryDx=0;entryDy=0;entryPerimeter=0;" parent="-Bo_3EVoivoA1jwyAUgO-1" source="-Bo_3EVoivoA1jwyAUgO-2" target="-Bo_3EVoivoA1jwyAUgO-4" edge="1">
                    <mxGeometry x="0.25" relative="1" as="geometry">
                        <Array as="points">
                            <mxPoint x="270" y="216"/>
                        </Array>
                        <mxPoint as="offset"/>
                    </mxGeometry>
                </mxCell>
                <mxCell id="-Bo_3EVoivoA1jwyAUgO-34" value="&lt;span style=&quot;font-family: &amp;#34;helvetica&amp;#34;&quot;&gt;emit creating&lt;/span&gt;&lt;br style=&quot;font-family: &amp;#34;helvetica&amp;#34;&quot;&gt;&lt;span style=&quot;font-family: &amp;#34;helvetica&amp;#34;&quot;&gt;unsignedTransaction&lt;/span&gt;" style="edgeLabel;html=1;align=center;verticalAlign=middle;resizable=0;points=[];" parent="-Bo_3EVoivoA1jwyAUgO-31" vertex="1" connectable="0">
                    <mxGeometry x="-0.2829" y="-11" relative="1" as="geometry">
                        <mxPoint x="-51" y="5" as="offset"/>
                    </mxGeometry>
                </mxCell>
                <mxCell id="-Bo_3EVoivoA1jwyAUgO-32" value="&lt;span style=&quot;color: rgb(240 , 240 , 240) ; font-family: &amp;#34;helvetica&amp;#34; ; font-size: 11px ; font-style: normal ; font-weight: 400 ; letter-spacing: normal ; text-align: center ; text-indent: 0px ; text-transform: none ; word-spacing: 0px ; background-color: rgb(42 , 42 , 42) ; display: inline ; float: none&quot;&gt;emit state&amp;nbsp;&lt;/span&gt;&lt;span style=&quot;color: rgb(240 , 240 , 240) ; font-family: &amp;#34;helvetica&amp;#34; ; font-size: 11px ; font-style: normal ; font-weight: 400 ; letter-spacing: normal ; text-align: center ; text-indent: 0px ; text-transform: none ; word-spacing: 0px ; background-color: rgb(42 , 42 , 42) ; display: inline ; float: none&quot;&gt;containing &lt;br&gt;unsignedTransaction&lt;/span&gt;" style="edgeStyle=orthogonalEdgeStyle;curved=1;html=1;entryX=0.5;entryY=0;entryDx=0;entryDy=0;exitX=0.75;exitY=0;exitDx=0;exitDy=0;entryPerimeter=0;" parent="-Bo_3EVoivoA1jwyAUgO-1" source="-Bo_3EVoivoA1jwyAUgO-2" target="-Bo_3EVoivoA1jwyAUgO-4" edge="1">
                    <mxGeometry relative="1" as="geometry">
                        <Array as="points">
                            <mxPoint x="300" y="170"/>
                            <mxPoint x="105" y="170"/>
                        </Array>
                    </mxGeometry>
                </mxCell>
                <mxCell id="-Bo_3EVoivoA1jwyAUgO-35" value="unsignedTransaction" style="edgeStyle=orthogonalEdgeStyle;curved=1;html=1;entryX=0.5;entryY=1;entryDx=0;entryDy=0;exitX=0;exitY=0.75;exitDx=0;exitDy=0;" parent="-Bo_3EVoivoA1jwyAUgO-1" source="-Bo_3EVoivoA1jwyAUgO-3" target="-Bo_3EVoivoA1jwyAUgO-2" edge="1">
                    <mxGeometry x="-0.0937" y="-9" relative="1" as="geometry">
                        <mxPoint as="offset"/>
                    </mxGeometry>
                </mxCell>
                <mxCell id="-Bo_3EVoivoA1jwyAUgO-3" value="&lt;span style=&quot;color: rgb(78 , 201 , 176) ; font-family: &amp;#34;consolas&amp;#34; , &amp;#34;courier new&amp;#34; , monospace ; font-size: 14px ; background-color: rgb(37 , 37 , 38)&quot;&gt;UnsignedTransactionRepository&lt;br&gt;&lt;/span&gt;&lt;span style=&quot;color: rgb(220 , 220 , 170) ; background-color: rgb(30 , 30 , 30) ; font-family: &amp;#34;consolas&amp;#34; , &amp;#34;courier new&amp;#34; , monospace ; font-size: 14px&quot;&gt;.generateUnsignedTransaction(send)&lt;br&gt;&lt;/span&gt;guard clauses + while loop&lt;span style=&quot;color: rgb(220 , 220 , 170) ; background-color: rgb(30 , 30 , 30) ; font-family: &amp;#34;consolas&amp;#34; , &amp;#34;courier new&amp;#34; , monospace ; font-size: 14px&quot;&gt;&lt;br&gt;&lt;/span&gt;" style="rounded=0;whiteSpace=wrap;html=1;verticalAlign=top;" parent="-Bo_3EVoivoA1jwyAUgO-1" vertex="1">
                    <mxGeometry x="530" y="250" width="320" height="240" as="geometry"/>
                </mxCell>
                <mxCell id="-Bo_3EVoivoA1jwyAUgO-5" value="enter()&lt;br&gt;choose()" style="edgeStyle=orthogonalEdgeStyle;html=1;entryX=0;entryY=0.5;entryDx=0;entryDy=0;exitX=0;exitY=0.3333333333333333;exitDx=0;exitDy=0;exitPerimeter=0;curved=1;" parent="-Bo_3EVoivoA1jwyAUgO-1" source="-Bo_3EVoivoA1jwyAUgO-4" target="-Bo_3EVoivoA1jwyAUgO-2" edge="1">
                    <mxGeometry x="0.6429" y="10" relative="1" as="geometry">
                        <Array as="points">
                            <mxPoint x="60" y="230"/>
                            <mxPoint x="60" y="330"/>
                        </Array>
                        <mxPoint as="offset"/>
                    </mxGeometry>
                </mxCell>
                <mxCell id="-Bo_3EVoivoA1jwyAUgO-6" value="submit()" style="edgeStyle=orthogonalEdgeStyle;html=1;entryX=0.25;entryY=0;entryDx=0;entryDy=0;curved=1;exitX=1;exitY=0.3333333333333333;exitDx=0;exitDy=0;exitPerimeter=0;" parent="-Bo_3EVoivoA1jwyAUgO-1" source="-Bo_3EVoivoA1jwyAUgO-4" target="-Bo_3EVoivoA1jwyAUgO-2" edge="1">
                    <mxGeometry x="0.6667" y="-20" relative="1" as="geometry">
                        <mxPoint as="offset"/>
                    </mxGeometry>
                </mxCell>
                <mxCell id="-Bo_3EVoivoA1jwyAUgO-4" value="Actor" style="shape=umlActor;verticalLabelPosition=bottom;verticalAlign=top;html=1;outlineConnect=0;" parent="-Bo_3EVoivoA1jwyAUgO-1" vertex="1">
                    <mxGeometry x="90" y="210" width="30" height="60" as="geometry"/>
                </mxCell>
                <mxCell id="-Bo_3EVoivoA1jwyAUgO-10" value="&lt;h1&gt;Submit control flow&lt;/h1&gt;&lt;p&gt;This diagram describes what happens when the user hits submit on a transaction submit is before confirm. we already have the unspents and the change address.&amp;nbsp;&lt;/p&gt;&lt;p&gt;What happens next? we make a UnsignedTransaction, and in that process, a couple loops and a few files are involved.&lt;/p&gt;" style="text;html=1;strokeColor=none;fillColor=none;spacing=5;spacingTop=-20;whiteSpace=wrap;overflow=hidden;rounded=0;" parent="-Bo_3EVoivoA1jwyAUgO-1" vertex="1">
                    <mxGeometry x="20" y="10" width="460" height="130" as="geometry"/>
                </mxCell>
                <mxCell id="-Bo_3EVoivoA1jwyAUgO-16" value="got unspents&lt;br&gt;for amount + fee" style="edgeStyle=orthogonalEdgeStyle;curved=1;html=1;exitX=0;exitY=0.75;exitDx=0;exitDy=0;entryX=0;entryY=0.25;entryDx=0;entryDy=0;" parent="-Bo_3EVoivoA1jwyAUgO-1" source="-Bo_3EVoivoA1jwyAUgO-11" target="-Bo_3EVoivoA1jwyAUgO-12" edge="1">
                    <mxGeometry y="-20" relative="1" as="geometry">
                        <Array as="points">
                            <mxPoint x="780" y="355"/>
                            <mxPoint x="780" y="405"/>
                        </Array>
                        <mxPoint as="offset"/>
                    </mxGeometry>
                </mxCell>
                <mxCell id="-Bo_3EVoivoA1jwyAUgO-11" value="&lt;span style=&quot;background-color: rgb(30 , 30 , 30) ; font-family: &amp;#34;consolas&amp;#34; , &amp;#34;courier new&amp;#34; , monospace ; font-size: 14px ; color: rgb(78 , 201 , 176)&quot;&gt;UnspentService&lt;/span&gt;&lt;span style=&quot;background-color: rgb(30 , 30 , 30) ; color: rgb(212 , 212 , 212) ; font-family: &amp;#34;consolas&amp;#34; , &amp;#34;courier new&amp;#34; , monospace ; font-size: 14px&quot;&gt;&lt;br&gt;&lt;/span&gt;&lt;span style=&quot;background-color: rgb(30 , 30 , 30) ; color: rgb(212 , 212 , 212) ; font-family: &amp;#34;consolas&amp;#34; , &amp;#34;courier new&amp;#34; , monospace ; font-size: 14px&quot;&gt;.&lt;/span&gt;&lt;span style=&quot;background-color: rgb(30 , 30 , 30) ; font-family: &amp;#34;consolas&amp;#34; , &amp;#34;courier new&amp;#34; , monospace ; font-size: 14px ; color: rgb(220 , 220 , 170)&quot;&gt;selectUnspents(...)&lt;/span&gt;" style="rounded=0;whiteSpace=wrap;html=1;" parent="-Bo_3EVoivoA1jwyAUgO-1" vertex="1">
                    <mxGeometry x="820" y="310" width="230" height="60" as="geometry"/>
                </mxCell>
                <mxCell id="-Bo_3EVoivoA1jwyAUgO-24" value="calculated fee&lt;br&gt;for those unspents" style="edgeStyle=orthogonalEdgeStyle;curved=1;html=1;entryX=0;entryY=0.25;entryDx=0;entryDy=0;exitX=0;exitY=0.75;exitDx=0;exitDy=0;" parent="-Bo_3EVoivoA1jwyAUgO-1" source="-Bo_3EVoivoA1jwyAUgO-12" target="-Bo_3EVoivoA1jwyAUgO-11" edge="1">
                    <mxGeometry y="30" relative="1" as="geometry">
                        <Array as="points">
                            <mxPoint x="690" y="435"/>
                            <mxPoint x="690" y="325"/>
                        </Array>
                        <mxPoint as="offset"/>
                    </mxGeometry>
                </mxCell>
                <mxCell id="-Bo_3EVoivoA1jwyAUgO-12" value="&lt;span style=&quot;background-color: rgb(30 , 30 , 30) ; font-family: &amp;#34;consolas&amp;#34; , &amp;#34;courier new&amp;#34; , monospace ; font-size: 14px ; color: rgb(78 , 201 , 176)&quot;&gt;UnsignedTransactionService&lt;br&gt;&lt;/span&gt;&lt;span style=&quot;background-color: rgb(30 , 30 , 30) ; color: rgb(212 , 212 , 212) ; font-family: &amp;#34;consolas&amp;#34; , &amp;#34;courier new&amp;#34; , monospace ; font-size: 14px&quot;&gt;.&lt;/span&gt;&lt;span style=&quot;background-color: rgb(30 , 30 , 30) ; font-family: &amp;#34;consolas&amp;#34; , &amp;#34;courier new&amp;#34; , monospace ; font-size: 14px ; color: rgb(220 , 220 , 170)&quot;&gt;create(...)&lt;/span&gt;" style="rounded=0;whiteSpace=wrap;html=1;" parent="-Bo_3EVoivoA1jwyAUgO-1" vertex="1">
                    <mxGeometry x="820" y="390" width="230" height="60" as="geometry"/>
                </mxCell>
                <mxCell id="-Bo_3EVoivoA1jwyAUgO-38" style="edgeStyle=orthogonalEdgeStyle;curved=1;html=1;entryX=0;entryY=0.25;entryDx=0;entryDy=0;" parent="-Bo_3EVoivoA1jwyAUgO-1" source="-Bo_3EVoivoA1jwyAUgO-37" target="-Bo_3EVoivoA1jwyAUgO-3" edge="1">
                    <mxGeometry relative="1" as="geometry"/>
                </mxCell>
                <mxCell id="-Bo_3EVoivoA1jwyAUgO-37" value="domain&lt;br&gt;interface" style="rounded=1;whiteSpace=wrap;html=1;" parent="-Bo_3EVoivoA1jwyAUgO-1" vertex="1">
                    <mxGeometry x="371" y="280" width="120" height="60" as="geometry"/>
                </mxCell>
            </root>
        </mxGraphModel>
    </diagram>
</mxfile>